<svg width="28" height="27" viewBox="0 0 28 27" fill="none" xmlns="http://www.w3.org/2000/svg">
<path d="M17.0583 5.83342C18.1979 6.05574 19.2451 6.61305 20.0661 7.43401C20.887 8.25496 21.4443 9.30222 21.6667 10.4417M17.0583 1.16675C19.4258 1.42976 21.6335 2.48995 23.319 4.17326C25.0044 5.85656 26.0673 8.06293 26.3333 10.4301M25.1667 19.7401V23.2401C25.168 23.565 25.1014 23.8866 24.9713 24.1843C24.8411 24.482 24.6502 24.7493 24.4108 24.9689C24.1713 25.1886 23.8887 25.3558 23.5809 25.4599C23.2731 25.564 22.9469 25.6027 22.6233 25.5734C19.0333 25.1833 15.5848 23.9566 12.555 21.9917C9.73614 20.2005 7.34623 17.8106 5.555 14.9917C3.58331 11.9482 2.35629 8.48291 1.97334 4.87675C1.94418 4.55413 1.98252 4.22897 2.08592 3.92198C2.18932 3.61498 2.3555 3.33289 2.5739 3.09364C2.79229 2.85439 3.05811 2.66324 3.35443 2.53236C3.65074 2.40147 3.97107 2.33372 4.295 2.33341H7.795C8.36119 2.32784 8.91009 2.52834 9.33939 2.89754C9.76869 3.26673 10.0491 3.77944 10.1283 4.34008C10.2761 5.46016 10.55 6.55993 10.945 7.61842C11.102 8.03599 11.1359 8.48982 11.0429 8.92611C10.9498 9.3624 10.7337 9.76288 10.42 10.0801L8.93834 11.5617C10.5992 14.4826 13.0175 16.9009 15.9383 18.5617L17.42 17.0801C17.7372 16.7664 18.1377 16.5502 18.574 16.4572C19.0103 16.3641 19.4641 16.3981 19.8817 16.5551C20.9402 16.9501 22.0399 17.224 23.16 17.3717C23.7267 17.4517 24.2443 17.7372 24.6143 18.1738C24.9843 18.6105 25.1809 19.1679 25.1667 19.7401Z" stroke="white" stroke-width="2" stroke-linecap="round" stroke-linejoin="round"/>
</svg>
